<?xml version="1.0" standalone="no"?>
<!DOCTYPE svg PUBLIC "-//W3C//DTD SVG 20010904//EN"
 "http://www.w3.org/TR/2001/REC-SVG-20010904/DTD/svg10.dtd">
<svg version="1.0" xmlns="http://www.w3.org/2000/svg"
 width="701.000000pt" height="251.000000pt" viewBox="0 0 701.000000 251.000000"
 preserveAspectRatio="xMidYMid meet">

<g transform="translate(0.000000,251.000000) scale(0.100000,-0.100000)"
fill="#000000" stroke="none">
<path d="M1130 2188 c-113 -67 -317 -185 -454 -264 l-248 -143 1 -543 c2 -540
2 -543 23 -558 11 -8 181 -108 377 -221 196 -113 393 -227 438 -253 l82 -48
78 42 c43 24 226 130 408 235 181 106 358 207 392 226 l63 34 -1 540 0 540
-242 138 c-133 76 -343 196 -467 267 -124 71 -229 130 -235 129 -5 0 -102 -55
-215 -121z m550 -149 c173 -99 363 -208 422 -242 l108 -62 0 -500 0 -500 -168
-96 c-92 -52 -283 -162 -424 -244 -247 -142 -259 -147 -287 -135 -16 6 -211
117 -433 245 l-403 234 -3 494 -2 495 172 100 c95 55 286 166 423 246 138 80
257 146 265 146 9 0 157 -81 330 -181z"/>
<path d="M1067 1573 c-30 -27 -68 -63 -83 -81 l-27 -34 112 -112 111 -111 -65
-65 c-81 -80 -115 -147 -123 -236 l-5 -67 58 7 c112 13 144 26 209 85 33 31
71 64 83 75 l22 18 110 -107 110 -107 88 86 88 85 -112 113 -112 113 85 89
c109 115 126 174 66 238 -61 66 -111 52 -241 -66 l-83 -76 -108 100 c-59 55
-112 100 -118 100 -6 0 -35 -21 -65 -47z m108 -74 c4 -10 1 -28 -5 -40 -17
-31 1 -45 39 -29 28 11 32 10 67 -24 l38 -37 -50 -50 -49 -50 -92 98 -91 98
46 47 46 48 23 -22 c12 -12 25 -29 28 -39z m463 35 c14 -9 22 -26 22 -44 0
-70 -30 -78 -90 -24 l-41 37 22 23 c26 28 55 30 87 8z m-98 -119 l44 -45 -191
-189 -190 -190 -47 48 -48 48 189 186 c103 103 190 187 193 187 3 0 26 -20 50
-45z m-12 -265 c33 -30 34 -38 4 -72 -13 -15 -12 -18 12 -24 15 -3 32 -1 40 6
17 13 41 3 70 -29 20 -22 19 -22 -29 -71 l-49 -50 -94 92 -93 93 45 43 c25 23
49 42 53 42 5 0 23 -13 41 -30z m-388 -183 c0 -18 -36 -37 -72 -37 -19 0 -20
4 -14 46 3 25 8 50 11 55 9 13 75 -43 75 -64z"/>
<path d="M2940 1468 l0 -103 40 71 c48 85 82 124 110 124 20 0 20 -5 20 -214
0 -231 0 -231 -55 -239 -16 -2 42 -4 130 -5 88 0 156 1 150 3 -5 2 -22 6 -37
9 l-28 6 0 220 c0 209 1 220 19 220 25 0 74 -57 111 -130 17 -33 32 -60 35
-60 3 0 5 45 5 100 l0 100 -250 0 -250 0 0 -102z"/>
<path d="M4130 1561 l25 -7 3 -221 2 -222 -22 -4 c-13 -2 24 -4 82 -4 58 -1
97 1 88 4 -12 3 -19 20 -23 56 -4 29 -6 57 -5 62 1 6 2 85 1 178 l-1 167 -87
-1 c-52 -1 -78 -4 -63 -8z"/>
<path d="M4565 1563 c55 -8 55 -9 55 -227 0 -220 -2 -226 -55 -226 -38 0 -54
17 -125 128 l-53 83 33 34 c18 19 42 36 54 38 12 2 -6 4 -39 4 -33 1 -52 -1
-42 -4 28 -7 20 -26 -39 -91 l-55 -61 35 -53 c40 -59 44 -74 19 -81 -10 -3 99
-5 242 -5 146 0 246 3 227 8 -18 4 -36 11 -39 14 -4 4 -9 46 -11 95 l-4 88 97
5 c112 6 142 22 163 83 25 76 -15 147 -94 166 -22 4 -120 8 -219 7 -99 0 -166
-3 -150 -5z m282 -11 c19 -12 33 -60 33 -112 0 -52 -14 -100 -33 -112 -7 -4
-27 -8 -44 -8 l-33 0 0 120 0 120 33 0 c17 0 37 -4 44 -8z"/>
<path d="M5060 1561 l25 -7 3 -217 2 -217 -22 -10 c-16 -6 9 -9 82 -9 73 0 98
3 83 9 -23 9 -23 10 -23 235 l0 225 -87 -1 c-52 -1 -78 -4 -63 -8z"/>
<path d="M4077 1399 c-5 -18 -11 -21 -39 -16 -18 3 -27 3 -20 0 8 -3 27 -26
43 -51 l29 -46 0 67 c0 69 -4 82 -13 46z"/>
<path d="M5937 1399 c-5 -18 -11 -20 -39 -14 -33 7 -33 7 -10 -10 12 -9 31
-33 42 -53 l19 -37 1 68 c0 69 -4 82 -13 46z"/>
<path d="M3546 1387 c-44 -14 -80 -54 -70 -80 13 -36 94 -33 118 5 8 13 6 22
-8 37 -21 24 -14 41 19 41 31 0 34 -11 34 -133 1 -109 -9 -137 -44 -123 -19 7
-21 96 -2 115 19 21 -91 6 -114 -15 -27 -24 -25 -85 2 -110 31 -28 111 -26
140 3 l22 22 18 -22 c23 -29 97 -31 128 -3 12 11 21 24 20 30 0 6 -3 6 -6 -1
-2 -7 -13 -13 -24 -13 -17 0 -19 8 -19 100 0 114 -9 130 -77 149 -48 14 -87
13 -137 -2z"/>
<path d="M3903 1385 c-37 -16 -53 -42 -53 -83 0 -34 35 -69 101 -103 68 -34
73 -82 11 -92 -24 -4 -24 -4 5 -6 42 -1 111 26 123 50 31 56 1 108 -87 152
-62 32 -80 52 -63 71 6 8 24 17 38 19 22 3 21 4 -8 5 -19 1 -49 -5 -67 -13z"/>
<path d="M5270 1391 c24 -7 25 -10 30 -119 5 -104 7 -113 31 -138 19 -19 41
-28 75 -32 48 -5 49 -4 32 15 -15 17 -18 40 -18 151 l0 132 -87 -1 c-52 -1
-78 -4 -63 -8z"/>
<path d="M5469 1391 c33 -9 42 -44 41 -161 -1 -52 -1 -103 -1 -112 1 -16 12
-18 84 -17 59 0 76 3 60 9 -22 9 -23 14 -23 150 l0 140 -92 -1 c-52 -1 -82 -4
-69 -8z"/>
<path d="M5783 1393 c-35 -7 -73 -49 -73 -80 0 -40 22 -66 83 -101 66 -37 84
-58 70 -80 -5 -9 -21 -20 -34 -24 -14 -5 -4 -6 26 -3 67 7 99 32 103 79 4 51
-17 80 -86 115 -71 36 -89 55 -72 75 6 8 24 17 38 19 25 4 25 4 -3 4 -16 0
-40 -2 -52 -4z"/>
<path d="M3841 1160 c0 -57 3 -69 10 -51 9 23 16 24 64 6 13 -6 11 -1 -9 15
-15 13 -36 42 -46 64 l-19 41 0 -75z"/>
<path d="M5701 1160 c0 -62 2 -71 11 -52 9 18 17 22 37 17 24 -6 25 -5 9 12
-8 10 -25 36 -36 58 l-21 40 0 -75z"/>
</g>
</svg>
